<!-- icon666.com - MILLIONS OF FREE VECTOR ICONS --><svg id="Layer_1" enable-background="new 0 0 512 512" viewBox="0 0 512 512" xmlns="http://www.w3.org/2000/svg"><g clip-rule="evenodd" fill-rule="evenodd"><path d="m428.487 448.825c0 11.628-9.461 21.089-21.089 21.089h-302.799c-11.628 0-21.087-9.461-21.087-21.089v-251.288c0-6.355 2.336-11.553 7.089-15.772l151.4-134.371c3.88-3.443 8.799-5.393 13.997-5.393 5.197 0 10.119 1.951 13.997 5.393l151.4 134.371c4.753 4.219 7.091 9.417 7.091 15.772v251.288zm-144.889-176.204c-42.03-42.028-97.919-65.18-157.357-65.18-6.107 0-11.06 4.952-11.06 11.06 0 6.109 4.95 11.064 11.06 11.064 110.51 0 200.416 89.903 200.416 200.413 0 6.108 4.952 11.059 11.059 11.059s11.06-4.952 11.06-11.059c.001-59.439-23.147-115.328-65.178-157.357zm-157.357 7.427c-6.107 0-11.06 4.952-11.06 11.059s4.953 11.059 11.06 11.059c70.477 0 127.809 57.335 127.809 127.811 0 6.107 4.952 11.059 11.059 11.059 6.108 0 11.06-4.951 11.06-11.059 0-82.669-67.258-149.929-149.928-149.929zm0 72.607c-6.11 0-11.06 4.949-11.06 11.059 0 6.108 4.951 11.06 11.06 11.06 30.439 0 55.204 24.766 55.204 55.204 0 6.107 4.952 11.059 11.059 11.059s11.06-4.952 11.06-11.059c0-42.635-34.688-77.323-77.323-77.323zm7.814 85.15c4.317-4.322 4.333-11.32.012-15.644-4.318-4.322-11.318-4.324-15.641-.008l-.742.741c-4.323 4.316-4.329 11.321-.012 15.643 2.083 2.086 4.879 3.242 7.826 3.242 2.94 0 5.736-1.152 7.815-3.233z" fill="#8ac9fe"></path><path d="m284.616 271.603c42.304 42.302 65.6 98.548 65.6 158.375 0 6.901-5.598 12.499-12.5 12.499-6.904 0-12.499-5.598-12.499-12.499 0-109.715-89.261-198.974-198.976-198.974-6.902 0-12.5-5.598-12.5-12.504 0-6.902 5.598-12.499 12.5-12.499 59.825 0 116.071 23.3 158.375 65.602zm-7.007 158.375c0-83.464-67.902-151.37-151.368-151.37-6.902 0-12.5 5.597-12.5 12.499s5.598 12.499 12.5 12.499c69.68 0 126.37 56.688 126.37 126.372 0 6.901 5.597 12.499 12.499 12.499 6.904 0 12.499-5.598 12.499-12.499zm-142.524-8.835c-4.878-4.884-12.792-4.889-17.677-.009l-.742.741c-4.886 4.88-4.89 12.795-.013 17.679 2.443 2.445 5.644 3.664 8.845 3.664 3.196 0 6.394-1.22 8.834-3.655l.74-.741c4.887-4.88 4.893-12.795.013-17.679zm69.919 8.835c0-43.428-35.332-78.763-78.763-78.763-6.904 0-12.5 5.593-12.5 12.499 0 6.902 5.596 12.499 12.5 12.499 29.645 0 53.764 24.121 53.764 53.765 0 6.901 5.597 12.499 12.499 12.499 6.903 0 12.5-5.598 12.5-12.499zm222.044 18.847v-251.288c0-5.945-2.161-10.749-6.607-14.695l-151.4-134.371c-3.777-3.355-8.41-5.03-13.042-5.03-4.633 0-9.263 1.675-13.042 5.03l-151.4 134.371c-4.445 3.946-6.605 8.75-6.605 14.695v251.288c0 10.833 8.814 19.649 19.647 19.649h302.799c10.834 0 19.65-8.815 19.65-19.649zm9.988-284.681-151.397-134.371c-16.898-14.995-42.379-14.995-59.278 0l-151.399 134.371c-9.818 8.718-15.009 20.264-15.009 33.392l-.002 251.288c0 24.618 20.03 44.648 44.648 44.648h302.799c24.62 0 44.65-20.03 44.65-44.648v-251.287c0-13.128-5.191-24.675-15.012-33.393z" fill="#428dff"></path></g></svg>